<svg xmlns="http://www.w3.org/2000/svg" viewBox="0 0 43.8 44.19"><defs><style>.cls-1{fill:#ff644a;}</style></defs><title>PoC-logo</title><g id="Layer_1" data-name="Layer 1"><path class="cls-1" d="M3.9,4.09v36h36v-36ZM19.52,32.33h0v0H15.21V29.22l-4.36-5.76a1.23,1.23,0,0,1-.29-.77V13.83a1.26,1.26,0,1,1,2.51,0v5.11a1.66,1.66,0,0,0-.82.42,1.69,1.69,0,0,0,0,2.39l2.38,2.45.32-.32-2.38-2.44a1.25,1.25,0,0,1,0-1.76,1.28,1.28,0,0,1,.53-.3,1.3,1.3,0,0,1,.63,0,1.24,1.24,0,0,1,.6.35l5.21,5.35ZM18.41,20.25A4.72,4.72,0,0,1,17,16.76a4.93,4.93,0,0,1,4.93-4.93,4.93,4.93,0,0,1,4.94,4.93A4.95,4.95,0,0,1,21.9,21.7,4.75,4.75,0,0,1,18.41,20.25Zm14.83,2.43a1.22,1.22,0,0,1-.29.77l-4.36,5.76v3.14H24.32v0h0V25.06l5.21-5.35a1.24,1.24,0,0,1,.6-.35,1.29,1.29,0,0,1,.62,0,1.27,1.27,0,0,1,.53.3,1.25,1.25,0,0,1,0,1.76l-2.38,2.44.33.32,2.38-2.45a1.69,1.69,0,0,0,0-2.39,1.66,1.66,0,0,0-.83-.42V13.83a1.26,1.26,0,0,1,2.51,0Z"/></g></svg>