<svg xmlns="http://www.w3.org/2000/svg" viewBox="0 0 219.77 44.19"><defs><style>.cls-1{fill:#003469;}.cls-2{fill:#ff644a;}</style></defs><title>PoC-logo</title><g id="Layer_1" data-name="Layer 1"><path class="cls-1" d="M54.32,8.16A2.84,2.84,0,0,1,54,9.52a2.47,2.47,0,0,1-.81.89,3.58,3.58,0,0,1-1.17.5,6,6,0,0,1-1.38.16H49.54v3.48H47.32V5.32h3.39a6.39,6.39,0,0,1,1.42.15A3.34,3.34,0,0,1,53.27,6a2.34,2.34,0,0,1,.77.87A2.89,2.89,0,0,1,54.32,8.16Zm-2.23,0A1,1,0,0,0,52,7.64a.92.92,0,0,0-.35-.33,1.51,1.51,0,0,0-.5-.16,4.22,4.22,0,0,0-.58,0h-1V9.3h.94a3.36,3.36,0,0,0,.6-.05,1.6,1.6,0,0,0,.51-.18A1,1,0,0,0,52,8.71,1,1,0,0,0,52.09,8.17Z"/><path class="cls-1" d="M60.6,14.55l-2-3.66h-.76v3.66H55.66V5.32h3.52a6.12,6.12,0,0,1,1.3.14,3.38,3.38,0,0,1,1.13.46,2.43,2.43,0,0,1,.8.86,2.69,2.69,0,0,1,.3,1.33,2.45,2.45,0,0,1-.51,1.58,2.77,2.77,0,0,1-1.41.91l2.41,4Zm-.09-6.4a.92.92,0,0,0-.14-.53A.94.94,0,0,0,60,7.31a1.54,1.54,0,0,0-.48-.15,3.64,3.64,0,0,0-.52,0H57.83V9.27h1.06a3.57,3.57,0,0,0,.56,0A1.8,1.8,0,0,0,60,9.06a.94.94,0,0,0,.54-.91Z"/><path class="cls-1" d="M73.93,9.89a5.15,5.15,0,0,1-.38,2,4.57,4.57,0,0,1-1,1.55,4.67,4.67,0,0,1-1.6,1,5.6,5.6,0,0,1-2,.35,5.54,5.54,0,0,1-2-.35,4.68,4.68,0,0,1-1.59-1,4.57,4.57,0,0,1-1-1.55,5.15,5.15,0,0,1-.38-2,5.09,5.09,0,0,1,.38-2,4.4,4.4,0,0,1,1-1.52,4.68,4.68,0,0,1,1.59-1,5.73,5.73,0,0,1,2-.34,5.8,5.8,0,0,1,2,.34,4.67,4.67,0,0,1,1.6,1,4.4,4.4,0,0,1,1,1.52A5.09,5.09,0,0,1,73.93,9.89Zm-2.39,0a3.18,3.18,0,0,0-.2-1.12,2.7,2.7,0,0,0-.54-.89A2.5,2.5,0,0,0,70,7.29a2.65,2.65,0,0,0-1.08-.21,2.56,2.56,0,0,0-1.9.8,2.53,2.53,0,0,0-.54.89,3.27,3.27,0,0,0-.19,1.12,3.31,3.31,0,0,0,.2,1.15A2.74,2.74,0,0,0,67,12a2.47,2.47,0,0,0,.83.59,2.76,2.76,0,0,0,2.14,0A2.52,2.52,0,0,0,70.8,12a2.69,2.69,0,0,0,.55-.91A3.31,3.31,0,0,0,71.54,9.89Z"/><path class="cls-1" d="M79,7.22v7.33H76.74V7.22H74.13V5.32h7.45v1.9Z"/><path class="cls-1" d="M82.59,14.55V5.32H88.8V7.2H84.74V8.94h3.83v1.79H84.74v1.92H89v1.9Z"/><path class="cls-1" d="M97,14.39a4.94,4.94,0,0,1-2.07.41,5.4,5.4,0,0,1-2-.35,4.56,4.56,0,0,1-2.62-2.54,5.07,5.07,0,0,1-.38-2,5.05,5.05,0,0,1,.38-2,4.47,4.47,0,0,1,1.06-1.53,4.7,4.7,0,0,1,1.59-1,5.7,5.7,0,0,1,3.89,0,3.68,3.68,0,0,1,1.53,1L96.9,7.94a1.87,1.87,0,0,0-.82-.64,2.72,2.72,0,0,0-1-.21A2.64,2.64,0,0,0,94,7.31a2.53,2.53,0,0,0-.84.59,2.72,2.72,0,0,0-.55.89,3.16,3.16,0,0,0-.2,1.13,3.25,3.25,0,0,0,.2,1.15,2.68,2.68,0,0,0,.54.89,2.44,2.44,0,0,0,.83.58,2.63,2.63,0,0,0,1.06.21,2.45,2.45,0,0,0,1.16-.26,2.25,2.25,0,0,0,.8-.68l1.55,1.46A4.4,4.4,0,0,1,97,14.39Z"/><path class="cls-1" d="M103.73,7.22v7.33H101.5V7.22H98.89V5.32h7.45v1.9Z"/><path class="cls-1" d="M107.35,14.55V5.32h2.24v9.23Z"/><path class="cls-1" d="M121.12,9.89a5.15,5.15,0,0,1-.38,2,4.57,4.57,0,0,1-1,1.55,4.67,4.67,0,0,1-1.6,1,5.6,5.6,0,0,1-2,.35,5.54,5.54,0,0,1-2-.35,4.68,4.68,0,0,1-1.59-1,4.57,4.57,0,0,1-1-1.55,5.15,5.15,0,0,1-.38-2,5.09,5.09,0,0,1,.38-2,4.4,4.4,0,0,1,1-1.52,4.68,4.68,0,0,1,1.59-1,5.73,5.73,0,0,1,2-.34,5.8,5.8,0,0,1,2,.34,4.67,4.67,0,0,1,1.6,1,4.4,4.4,0,0,1,1,1.52A5.09,5.09,0,0,1,121.12,9.89Zm-2.39,0a3.18,3.18,0,0,0-.2-1.12,2.7,2.7,0,0,0-.54-.89,2.5,2.5,0,0,0-.83-.59,2.65,2.65,0,0,0-1.08-.21,2.56,2.56,0,0,0-1.9.8,2.53,2.53,0,0,0-.54.89,3.27,3.27,0,0,0-.19,1.12,3.31,3.31,0,0,0,.2,1.15,2.74,2.74,0,0,0,.54.91,2.47,2.47,0,0,0,.83.59,2.76,2.76,0,0,0,2.14,0A2.52,2.52,0,0,0,118,12a2.69,2.69,0,0,0,.55-.91A3.31,3.31,0,0,0,118.74,9.89Z"/><path class="cls-1" d="M128.47,14.55l-3.72-6h0l.05,6H122.6V5.32h2.54l3.7,6h0l-.05-6H131v9.23Z"/><path class="cls-1" d="M142.38,9.93a5.23,5.23,0,0,1-.36,2,4.64,4.64,0,0,1-1,1.54,4.52,4.52,0,0,1-1.51,1,5.08,5.08,0,0,1-3.78,0,4.51,4.51,0,0,1-1.51-1,4.63,4.63,0,0,1-1-1.54,5.22,5.22,0,0,1-.36-2,5.22,5.22,0,0,1,.36-2,4.63,4.63,0,0,1,1-1.54,4.53,4.53,0,0,1,1.5-1,5.11,5.11,0,0,1,3.79,0,4.54,4.54,0,0,1,1.5,1A4.64,4.64,0,0,1,142,8,5.24,5.24,0,0,1,142.38,9.93Zm-.29,0a4.94,4.94,0,0,0-.33-1.81,4.43,4.43,0,0,0-.92-1.47,4.29,4.29,0,0,0-1.42-1,4.69,4.69,0,0,0-3.6,0,4.29,4.29,0,0,0-1.41,1,4.43,4.43,0,0,0-.92,1.47,4.94,4.94,0,0,0-.33,1.81,5,5,0,0,0,.32,1.81,4.41,4.41,0,0,0,.91,1.47,4.23,4.23,0,0,0,1.41,1,4.83,4.83,0,0,0,3.65,0,4.22,4.22,0,0,0,1.41-1,4.4,4.4,0,0,0,.91-1.47A5,5,0,0,0,142.09,9.93Z"/><path class="cls-1" d="M145,5.58V9.63h4.63v.26H145v4.66h-.29V5.32H150v.26Z"/><path class="cls-1" d="M158.19,14.39a4.94,4.94,0,0,1-2.07.41,5.4,5.4,0,0,1-2-.35,4.56,4.56,0,0,1-2.62-2.54,5.07,5.07,0,0,1-.38-2,5.05,5.05,0,0,1,.38-2,4.47,4.47,0,0,1,1.06-1.53,4.7,4.7,0,0,1,1.59-1,5.7,5.7,0,0,1,3.89,0,3.68,3.68,0,0,1,1.53,1L158.1,7.94a1.87,1.87,0,0,0-.82-.64,2.72,2.72,0,0,0-1-.21,2.64,2.64,0,0,0-1.08.22,2.53,2.53,0,0,0-.84.59,2.72,2.72,0,0,0-.55.89,3.16,3.16,0,0,0-.2,1.13,3.25,3.25,0,0,0,.2,1.15,2.68,2.68,0,0,0,.54.89,2.44,2.44,0,0,0,.83.58,2.63,2.63,0,0,0,1.06.21,2.45,2.45,0,0,0,1.16-.26,2.25,2.25,0,0,0,.8-.68l1.55,1.46A4.4,4.4,0,0,1,158.19,14.39Z"/><path class="cls-1" d="M160.65,14.55V5.32h2.24v9.23Z"/><path class="cls-1" d="M169.37,14.55h-2.23l-3.49-9.23h2.5l2.14,6.55h.05l2.13-6.55h2.46Z"/><path class="cls-1" d="M173.69,14.55V5.32h2.24v9.23Z"/><path class="cls-1" d="M177.84,14.55V5.32h2.24v7.29h3.57v1.94Z"/><path class="cls-1" d="M184.7,14.55V5.32h2.24v9.23Z"/><path class="cls-1" d="M195.1,14.55l-.72-1.81h-3.57l-.68,1.81h-2.43l3.87-9.23h2.17l3.83,9.23Zm-2.48-6.77L191.45,11h2.32Z"/><path class="cls-1" d="M204.22,14.55l-3.72-6h0l.05,6h-2.17V5.32h2.54l3.7,6h0l-.05-6h2.17v9.23Z"/><path class="cls-1" d="M213.53,7.72a2,2,0,0,0-.75-.58,2.11,2.11,0,0,0-.89-.22,2.67,2.67,0,0,0-.45,0,1.17,1.17,0,0,0-.41.15,1,1,0,0,0-.31.29.77.77,0,0,0-.12.45.72.72,0,0,0,.1.39.87.87,0,0,0,.29.27,2.55,2.55,0,0,0,.45.21l.59.2,1,.35a3.66,3.66,0,0,1,.93.5,2.63,2.63,0,0,1,.69.78,2.23,2.23,0,0,1,.27,1.15,3,3,0,0,1-.29,1.38,2.74,2.74,0,0,1-.79,1,3.38,3.38,0,0,1-1.13.56,4.78,4.78,0,0,1-1.32.18,5.44,5.44,0,0,1-1.92-.35,4.07,4.07,0,0,1-1.54-1L209.36,12a2.69,2.69,0,0,0,.89.7,2.42,2.42,0,0,0,1.1.28,2.19,2.19,0,0,0,.48-.05,1.21,1.21,0,0,0,.41-.17.86.86,0,0,0,.28-.31,1,1,0,0,0,.1-.47.75.75,0,0,0-.13-.44,1.28,1.28,0,0,0-.37-.33,3,3,0,0,0-.6-.27l-.81-.27a7.76,7.76,0,0,1-.87-.34,2.89,2.89,0,0,1-.76-.5,2.32,2.32,0,0,1-.53-.74,2.52,2.52,0,0,1-.2-1.06,2.62,2.62,0,0,1,.31-1.32,2.73,2.73,0,0,1,.82-.9,3.55,3.55,0,0,1,1.15-.52,5.21,5.21,0,0,1,1.29-.16,4.8,4.8,0,0,1,1.6.29,4.12,4.12,0,0,1,1.43.85Z"/><path class="cls-1" d="M49.38,27.92a1.8,1.8,0,0,1-2-2V21.42h.22v4.43c0,1.1.49,1.86,1.74,1.86s1.73-.78,1.73-1.86V21.42h.22v4.46A1.81,1.81,0,0,1,49.38,27.92Z"/><path class="cls-1" d="M56.78,24.36v3.47h-.21V24.37c0-.88-.36-1.33-1.1-1.33a2.12,2.12,0,0,0-1.79,1.17v3.61h-.21V22.95h.18l0,1a2.14,2.14,0,0,1,1.79-1.09C56.37,22.85,56.78,23.4,56.78,24.36Z"/><path class="cls-1" d="M59.24,21.21a.18.18,0,0,1-.2.18.18.18,0,0,1-.19-.18A.19.19,0,0,1,59,21,.19.19,0,0,1,59.24,21.21Zm-.3,6.62V22.95h.21v4.88Z"/><path class="cls-1" d="M62.36,27.92c-.65,0-1.05-.4-1.05-1.19V23.13H60.5v-.19h.81V21.72l.21,0v1.25h1.35l0,.19H61.51v3.58c0,.66.29,1,.86,1a1.57,1.57,0,0,0,.84-.24l.09.16A1.72,1.72,0,0,1,62.36,27.92Z"/><path class="cls-1" d="M67.52,25.51H64.11c0,1.49.74,2.21,1.73,2.21a2,2,0,0,0,1.38-.54l.11.16a2.17,2.17,0,0,1-1.49.57c-1.18,0-1.95-.91-1.95-2.49s.74-2.58,1.87-2.58,1.78.94,1.78,2.3C67.54,25.29,67.53,25.41,67.52,25.51Zm-.19-.43c0-1.18-.48-2-1.55-2s-1.64.74-1.67,2.29h3.22Z"/><path class="cls-1" d="M72.46,27.82h-.18l0-.84a1.67,1.67,0,0,1-1.55.93c-1.08,0-1.79-.93-1.79-2.52s.7-2.55,1.9-2.55a1.64,1.64,0,0,1,1.45.78V20.91l.21,0Zm-.21-1.16V23.9A1.66,1.66,0,0,0,70.8,23c-1,0-1.69.9-1.68,2.36s.62,2.32,1.59,2.32A1.63,1.63,0,0,0,72.25,26.67Z"/><path class="cls-1" d="M81.14,27.82l-3.46-6.17c0,.33,0,.75,0,1.68v4.48H77.5v-6.4h.27l3.45,6.16c0-.38,0-.95,0-1.68V21.42h.21v6.4Z"/><path class="cls-1" d="M86.85,27.77l-.06.15c-.39-.12-.55-.37-.56-.95a1.71,1.71,0,0,1-1.59.95,1.36,1.36,0,0,1-1.47-1.45c0-1,.76-1.54,1.92-1.54H86.2v-.58c0-.85-.31-1.31-1.25-1.31a3.52,3.52,0,0,0-1.34.31l-.07-.18a3.6,3.6,0,0,1,1.41-.32c1,0,1.46.52,1.46,1.48v2.46C86.4,27.44,86.53,27.66,86.85,27.77Zm-.65-1.06V25.12H85.13c-1.07,0-1.73.46-1.73,1.35a1.15,1.15,0,0,0,1.24,1.25A1.65,1.65,0,0,0,86.2,26.71Z"/><path class="cls-1" d="M89.62,27.92c-.65,0-1.05-.4-1.05-1.19V23.13h-.81v-.19h.81V21.72l.21,0v1.25h1.35l0,.19H88.77v3.58c0,.66.29,1,.86,1a1.57,1.57,0,0,0,.84-.24l.09.16A1.72,1.72,0,0,1,89.62,27.92Z"/><path class="cls-1" d="M92,21.21a.18.18,0,0,1-.2.18.18.18,0,0,1-.19-.18.19.19,0,0,1,.19-.19A.19.19,0,0,1,92,21.21Zm-.3,6.62V22.95h.21v4.88Z"/><path class="cls-1" d="M97.56,25.36c0,1.63-.77,2.56-2,2.56s-1.95-.95-1.95-2.53.78-2.54,2-2.54S97.56,23.75,97.56,25.36Zm-3.68,0c0,1.48.65,2.33,1.73,2.33s1.74-.84,1.74-2.36S96.7,23,95.62,23,93.88,23.86,93.88,25.39Z"/><path class="cls-1" d="M102.64,24.36v3.47h-.21V24.37c0-.88-.36-1.33-1.1-1.33a2.12,2.12,0,0,0-1.79,1.17v3.61h-.21V22.95h.18l0,1a2.14,2.14,0,0,1,1.79-1.09C102.23,22.85,102.64,23.4,102.64,24.36Z"/><path class="cls-1" d="M107.29,23.37l-.12.15a2,2,0,0,0-1.32-.48c-.73,0-1.28.39-1.28,1s.37.83,1.33,1.09,1.51.61,1.51,1.42a1.42,1.42,0,0,1-1.59,1.35,2.37,2.37,0,0,1-1.64-.62l.12-.14a2.16,2.16,0,0,0,1.52.56c.78,0,1.37-.41,1.37-1.16s-.33-1-1.39-1.25-1.46-.6-1.46-1.26a1.33,1.33,0,0,1,1.49-1.2A2.15,2.15,0,0,1,107.29,23.37Z"/><path class="cls-1" d="M115,22l-.14.16a2.07,2.07,0,0,0-1.55-.61c-.93,0-1.52.54-1.52,1.28s.42,1.1,1.61,1.47,1.8.8,1.8,1.84a1.79,1.79,0,0,1-2,1.8,2.67,2.67,0,0,1-1.92-.77l.14-.14a2.4,2.4,0,0,0,1.77.71A1.58,1.58,0,0,0,115,26.12c0-.94-.48-1.29-1.67-1.66s-1.75-.8-1.75-1.65a1.56,1.56,0,0,1,1.74-1.48A2.33,2.33,0,0,1,115,22Z"/><path class="cls-1" d="M120.14,25.51h-3.41c0,1.49.74,2.21,1.73,2.21a2,2,0,0,0,1.38-.54l.11.16a2.17,2.17,0,0,1-1.49.57c-1.18,0-1.95-.91-1.95-2.49s.74-2.58,1.87-2.58,1.78.94,1.78,2.3C120.16,25.29,120.15,25.41,120.14,25.51Zm-.19-.43c0-1.18-.48-2-1.55-2s-1.64.74-1.67,2.29H120Z"/><path class="cls-1" d="M124.72,23.32l-.12.14a1.62,1.62,0,0,0-1.14-.42c-1,0-1.77.84-1.77,2.37s.74,2.31,1.76,2.31a1.73,1.73,0,0,0,1.2-.46l.11.15a1.9,1.9,0,0,1-1.31.51c-1.17,0-2-.91-2-2.51s.78-2.56,2-2.56A1.74,1.74,0,0,1,124.72,23.32Z"/><path class="cls-1" d="M129.28,27.82v-1a1.9,1.9,0,0,1-1.69,1.09c-.87,0-1.37-.53-1.37-1.49V22.95h.21V26.4c0,.89.43,1.32,1.19,1.32a1.89,1.89,0,0,0,1.64-1.15V22.95h.21v4.88Z"/><path class="cls-1" d="M133.81,22.91l0,.18a1.9,1.9,0,0,0-.43,0c-.73,0-1.14.5-1.45,1.55v3.23h-.21V22.95h.18v1.21c.27-.89.72-1.31,1.47-1.31A1.9,1.9,0,0,1,133.81,22.91Z"/><path class="cls-1" d="M135.37,21.21a.18.18,0,0,1-.2.18.18.18,0,0,1-.19-.18.19.19,0,0,1,.19-.19A.19.19,0,0,1,135.37,21.21Zm-.3,6.62V22.95h.21v4.88Z"/><path class="cls-1" d="M138.49,27.92c-.65,0-1.05-.4-1.05-1.19V23.13h-.81v-.19h.81V21.72l.21,0v1.25H139l0,.19h-1.32v3.58c0,.66.29,1,.86,1a1.57,1.57,0,0,0,.84-.24l.09.16A1.72,1.72,0,0,1,138.49,27.92Z"/><path class="cls-1" d="M140,29.66l0-.17c1-.29,1.17-.7,1.53-1.66h-.08l-1.76-4.88h.23l1.67,4.73,1.61-4.73h.23l-1.7,4.89C141.31,28.91,141,29.36,140,29.66Z"/><path class="cls-1" d="M151.13,21.87,151,22a2,2,0,0,0-1.37-.5c-1.29,0-2.3.94-2.3,3.1s1,3.08,2.27,3.08a2.07,2.07,0,0,0,1.48-.55l.13.16a2.33,2.33,0,0,1-1.61.6c-1.44,0-2.48-1.16-2.48-3.29s1.1-3.3,2.5-3.3A2.15,2.15,0,0,1,151.13,21.87Z"/><path class="cls-1" d="M155.93,25.36c0,1.63-.77,2.56-2,2.56S152,27,152,25.39s.78-2.54,2-2.54S155.93,23.75,155.93,25.36Zm-3.68,0c0,1.48.65,2.33,1.73,2.33s1.74-.84,1.74-2.36S155.06,23,154,23,152.24,23.86,152.24,25.39Z"/><path class="cls-1" d="M160.72,27.82v-1A1.9,1.9,0,0,1,159,27.92c-.87,0-1.37-.53-1.37-1.49V22.95h.21V26.4c0,.89.43,1.32,1.19,1.32a1.89,1.89,0,0,0,1.64-1.15V22.95h.21v4.88Z"/><path class="cls-1" d="M166.42,24.36v3.47h-.21V24.37c0-.88-.36-1.33-1.1-1.33a2.12,2.12,0,0,0-1.79,1.17v3.61h-.21V22.95h.18l0,1a2.14,2.14,0,0,1,1.79-1.09C166,22.85,166.42,23.4,166.42,24.36Z"/><path class="cls-1" d="M171.39,23.32l-.12.14a1.62,1.62,0,0,0-1.14-.42c-1,0-1.77.84-1.77,2.37s.74,2.31,1.76,2.31a1.73,1.73,0,0,0,1.2-.46l.11.15a1.9,1.9,0,0,1-1.31.51c-1.17,0-2-.91-2-2.51s.78-2.56,2-2.56A1.74,1.74,0,0,1,171.39,23.32Z"/><path class="cls-1" d="M173.23,21.21a.18.18,0,0,1-.2.18.18.18,0,0,1-.19-.18A.19.19,0,0,1,173,21,.19.19,0,0,1,173.23,21.21Zm-.3,6.62V22.95h.21v4.88Z"/><path class="cls-1" d="M176,27.72a1,1,0,0,0,.36-.08l.06.18a1.23,1.23,0,0,1-.44.09c-.42,0-.68-.25-.68-.79V20.93l.21,0v6.23C175.51,27.52,175.66,27.72,176,27.72Z"/><path class="cls-1" d="M47.74,36v3h-.22v-6.4h1.4c1.49,0,2.11.61,2.11,1.66A1.59,1.59,0,0,1,49.53,36l1.79,3.07h-.27l-1.75-3Zm3.07-1.69c0-.92-.5-1.47-1.92-1.47H47.74v3h1.33C50.1,35.85,50.81,35.4,50.81,34.36Z"/><path class="cls-1" d="M55.82,36.78H52.4c0,1.49.74,2.21,1.73,2.21a2,2,0,0,0,1.38-.54l.11.16a2.17,2.17,0,0,1-1.49.57c-1.18,0-1.95-.91-1.95-2.49s.74-2.58,1.87-2.58,1.78.94,1.78,2.3C55.83,36.56,55.82,36.68,55.82,36.78Zm-.19-.43c0-1.18-.48-2-1.55-2s-1.64.74-1.67,2.29h3.22Z"/><path class="cls-1" d="M60.07,34.64l-.12.15a2,2,0,0,0-1.32-.48c-.73,0-1.28.39-1.28,1s.37.83,1.33,1.09,1.51.61,1.51,1.42a1.42,1.42,0,0,1-1.59,1.35A2.37,2.37,0,0,1,57,38.57l.12-.14a2.16,2.16,0,0,0,1.52.56c.78,0,1.37-.41,1.37-1.16s-.33-1-1.39-1.25-1.46-.6-1.46-1.26a1.33,1.33,0,0,1,1.49-1.2A2.15,2.15,0,0,1,60.07,34.64Z"/><path class="cls-1" d="M65.38,36.63c0,1.63-.77,2.56-2,2.56s-1.95-.95-1.95-2.53.78-2.54,2-2.54S65.38,35,65.38,36.63Zm-3.68,0c0,1.48.65,2.33,1.73,2.33s1.74-.84,1.74-2.36-.65-2.32-1.73-2.32S61.69,35.13,61.69,36.66Z"/><path class="cls-1" d="M67.82,39a1,1,0,0,0,.36-.08l.06.18a1.23,1.23,0,0,1-.44.09c-.42,0-.68-.25-.68-.79V32.21l.21,0v6.23C67.32,38.79,67.46,39,67.82,39Z"/><path class="cls-1" d="M72.77,39.09v-1a1.9,1.9,0,0,1-1.69,1.09c-.87,0-1.37-.53-1.37-1.49V34.22h.21v3.46c0,.89.43,1.32,1.19,1.32a1.89,1.89,0,0,0,1.64-1.15V34.22H73v4.88Z"/><path class="cls-1" d="M76.16,39.19c-.65,0-1.05-.4-1.05-1.19V34.4h-.81v-.19h.81V33l.21,0v1.25h1.35l0,.19H75.31V38c0,.66.29,1,.86,1a1.57,1.57,0,0,0,.84-.24l.09.16A1.72,1.72,0,0,1,76.16,39.19Z"/><path class="cls-1" d="M78.5,32.48a.18.18,0,0,1-.2.18.18.18,0,0,1-.19-.18.19.19,0,0,1,.19-.19A.19.19,0,0,1,78.5,32.48Zm-.3,6.62V34.22h.21v4.88Z"/><path class="cls-1" d="M84.1,36.63c0,1.63-.77,2.56-2,2.56s-1.95-.95-1.95-2.53.78-2.54,2-2.54S84.1,35,84.1,36.63Zm-3.68,0c0,1.48.65,2.33,1.73,2.33s1.74-.84,1.74-2.36-.65-2.32-1.73-2.32S80.42,35.13,80.42,36.66Z"/><path class="cls-1" d="M89.19,35.63v3.47H89V35.65c0-.88-.36-1.33-1.1-1.33a2.12,2.12,0,0,0-1.79,1.17v3.61h-.21V34.22h.18l0,1a2.14,2.14,0,0,1,1.79-1.09C88.77,34.12,89.19,34.67,89.19,35.63Z"/><path class="cls-1" d="M93.83,34.64l-.12.15a2,2,0,0,0-1.32-.48c-.73,0-1.28.39-1.28,1s.37.83,1.33,1.09S94,37,94,37.84a1.42,1.42,0,0,1-1.59,1.35,2.37,2.37,0,0,1-1.65-.62l.12-.14a2.16,2.16,0,0,0,1.52.56c.78,0,1.37-.41,1.37-1.16s-.33-1-1.39-1.25S90.9,36,90.9,35.33a1.33,1.33,0,0,1,1.49-1.2A2.15,2.15,0,0,1,93.83,34.64Z"/><path class="cls-1" d="M101.63,39l-.06.15c-.39-.12-.55-.37-.56-.95a1.71,1.71,0,0,1-1.59.95A1.36,1.36,0,0,1,98,37.74c0-1,.76-1.54,1.92-1.54H101v-.58c0-.85-.31-1.31-1.25-1.31a3.52,3.52,0,0,0-1.34.31l-.07-.18a3.6,3.6,0,0,1,1.41-.32c1,0,1.46.52,1.46,1.48v2.46C101.19,38.71,101.31,38.93,101.63,39ZM101,38V36.39H99.91c-1.07,0-1.73.46-1.73,1.35A1.15,1.15,0,0,0,99.42,39,1.65,1.65,0,0,0,101,38Z"/><path class="cls-1" d="M106.7,35.63v3.47h-.21V35.65c0-.88-.36-1.33-1.1-1.33a2.12,2.12,0,0,0-1.79,1.17v3.61h-.21V34.22h.18l0,1a2.14,2.14,0,0,1,1.79-1.09C106.29,34.12,106.7,34.67,106.7,35.63Z"/><path class="cls-1" d="M112,39.09h-.18l0-.84a1.67,1.67,0,0,1-1.55.93c-1.08,0-1.79-.93-1.79-2.52s.7-2.55,1.9-2.55a1.64,1.64,0,0,1,1.45.78V32.18l.21,0Zm-.21-1.16V35.17a1.66,1.66,0,0,0-1.45-.86c-1,0-1.69.9-1.68,2.36s.62,2.32,1.59,2.32A1.63,1.63,0,0,0,111.83,37.94Z"/><path class="cls-1" d="M120.63,34.55c0,1.38-.93,1.9-2.3,1.9h-1v2.65h-.22v-6.4h1.3C119.83,32.69,120.63,33.24,120.63,34.55Zm-.23,0c0-1.21-.71-1.66-2-1.66h-1.08v3.36h1.05C119.57,36.25,120.4,35.82,120.4,34.55Z"/><path class="cls-1" d="M124.41,34.18l0,.18a1.89,1.89,0,0,0-.43,0c-.73,0-1.14.5-1.45,1.55v3.23h-.21V34.22h.18v1.21c.27-.89.72-1.31,1.47-1.31A1.9,1.9,0,0,1,124.41,34.18Z"/><path class="cls-1" d="M128.78,36.78h-3.41c0,1.49.74,2.21,1.73,2.21a2,2,0,0,0,1.38-.54l.11.16a2.17,2.17,0,0,1-1.49.57c-1.18,0-1.95-.91-1.95-2.49s.74-2.58,1.87-2.58,1.78.94,1.78,2.3C128.8,36.56,128.79,36.68,128.78,36.78Zm-.19-.43c0-1.18-.48-2-1.55-2s-1.64.74-1.67,2.29h3.22Z"/><path class="cls-1" d="M133,34.64l-.12.15a2,2,0,0,0-1.32-.48c-.73,0-1.28.39-1.28,1s.37.83,1.33,1.09,1.51.61,1.51,1.42a1.42,1.42,0,0,1-1.59,1.35,2.37,2.37,0,0,1-1.65-.62l.12-.14a2.16,2.16,0,0,0,1.52.56c.78,0,1.37-.41,1.37-1.16s-.33-1-1.39-1.25-1.46-.6-1.46-1.26a1.33,1.33,0,0,1,1.49-1.2A2.15,2.15,0,0,1,133,34.64Z"/><path class="cls-1" d="M135.17,32.48a.18.18,0,0,1-.2.18.18.18,0,0,1-.19-.18.19.19,0,0,1,.19-.19A.19.19,0,0,1,135.17,32.48Zm-.3,6.62V34.22h.21v4.88Z"/><path class="cls-1" d="M140.47,39.09h-.18l0-.84a1.67,1.67,0,0,1-1.55.93c-1.08,0-1.79-.93-1.79-2.52s.7-2.55,1.9-2.55a1.64,1.64,0,0,1,1.45.78V32.18l.21,0Zm-.21-1.16V35.17a1.66,1.66,0,0,0-1.45-.86c-1,0-1.69.9-1.68,2.36s.62,2.32,1.59,2.32A1.63,1.63,0,0,0,140.26,37.94Z"/><path class="cls-1" d="M145.79,36.78h-3.41c0,1.49.74,2.21,1.73,2.21a2,2,0,0,0,1.38-.54l.11.16a2.17,2.17,0,0,1-1.49.57c-1.18,0-1.95-.91-1.95-2.49s.74-2.58,1.87-2.58,1.78.94,1.78,2.3C145.81,36.56,145.8,36.68,145.79,36.78Zm-.19-.43c0-1.18-.48-2-1.55-2s-1.64.74-1.67,2.29h3.22Z"/><path class="cls-1" d="M150.85,35.63v3.47h-.21V35.65c0-.88-.36-1.33-1.1-1.33a2.12,2.12,0,0,0-1.79,1.17v3.61h-.21V34.22h.18l0,1a2.14,2.14,0,0,1,1.79-1.09C150.44,34.12,150.85,34.67,150.85,35.63Z"/><path class="cls-1" d="M154,39.19c-.65,0-1.05-.4-1.05-1.19V34.4h-.81v-.19H153V33l.21,0v1.25h1.35l0,.19h-1.32V38c0,.66.29,1,.86,1a1.57,1.57,0,0,0,.84-.24l.09.16A1.72,1.72,0,0,1,154,39.19Z"/><path class="cls-1" d="M156.36,32.48a.18.18,0,0,1-.2.18.18.18,0,0,1-.19-.18.19.19,0,0,1,.19-.19A.19.19,0,0,1,156.36,32.48Zm-.3,6.62V34.22h.21v4.88Z"/><path class="cls-1" d="M161.66,39l-.06.15c-.39-.12-.55-.37-.56-.95a1.71,1.71,0,0,1-1.59.95A1.36,1.36,0,0,1,158,37.74c0-1,.76-1.54,1.92-1.54H161v-.58c0-.85-.31-1.31-1.25-1.31a3.52,3.52,0,0,0-1.34.31l-.07-.18a3.6,3.6,0,0,1,1.41-.32c1,0,1.46.52,1.46,1.48v2.46C161.22,38.71,161.34,38.93,161.66,39ZM161,38V36.39h-1.07c-1.07,0-1.73.46-1.73,1.35A1.15,1.15,0,0,0,159.46,39,1.65,1.65,0,0,0,161,38Z"/><path class="cls-1" d="M164.1,39a1,1,0,0,0,.36-.08l.06.18a1.23,1.23,0,0,1-.44.09c-.42,0-.68-.25-.68-.79V32.21l.21,0v6.23C163.6,38.79,163.74,39,164.1,39Z"/><path class="cls-1" d="M171.88,33.25l-.14.16a2.07,2.07,0,0,0-1.55-.61c-.93,0-1.52.54-1.52,1.28s.42,1.1,1.61,1.47,1.8.8,1.8,1.84a1.79,1.79,0,0,1-2,1.8,2.67,2.67,0,0,1-1.92-.77l.14-.14a2.4,2.4,0,0,0,1.77.71,1.58,1.58,0,0,0,1.76-1.59c0-.94-.48-1.29-1.67-1.66s-1.75-.8-1.75-1.65a1.56,1.56,0,0,1,1.74-1.48A2.33,2.33,0,0,1,171.88,33.25Z"/><path class="cls-1" d="M174.84,39.19c-.65,0-1.05-.4-1.05-1.19V34.4H173v-.19h.81V33l.21,0v1.25h1.35l0,.19H174V38c0,.66.29,1,.86,1a1.57,1.57,0,0,0,.84-.24l.09.16A1.72,1.72,0,0,1,174.84,39.19Z"/><path class="cls-1" d="M180.07,39l-.06.15c-.39-.12-.55-.37-.56-.95a1.71,1.71,0,0,1-1.59.95,1.36,1.36,0,0,1-1.47-1.45c0-1,.76-1.54,1.92-1.54h1.11v-.58c0-.85-.31-1.31-1.25-1.31a3.52,3.52,0,0,0-1.34.31l-.07-.18a3.6,3.6,0,0,1,1.41-.32c1,0,1.46.52,1.46,1.48v2.46C179.63,38.71,179.75,38.93,180.07,39ZM179.42,38V36.39h-1.07c-1.07,0-1.73.46-1.73,1.35A1.15,1.15,0,0,0,177.86,39,1.65,1.65,0,0,0,179.42,38Z"/><path class="cls-1" d="M182.84,39.19c-.65,0-1.05-.4-1.05-1.19V34.4H181v-.19h.81V33l.21,0v1.25h1.35l0,.19H182V38c0,.66.29,1,.86,1a1.57,1.57,0,0,0,.84-.24l.09.16A1.72,1.72,0,0,1,182.84,39.19Z"/><path class="cls-1" d="M188,36.78h-3.41c0,1.49.74,2.21,1.73,2.21a2,2,0,0,0,1.38-.54l.11.16a2.17,2.17,0,0,1-1.49.57c-1.18,0-1.95-.91-1.95-2.49s.74-2.58,1.87-2.58,1.78.94,1.78,2.3C188,36.56,188,36.68,188,36.78Zm-.19-.43c0-1.18-.48-2-1.55-2s-1.64.74-1.67,2.29h3.22Z"/><path class="cls-1" d="M195.56,35.63v3.47h-.21V35.65c0-.86-.35-1.33-1-1.33a1.92,1.92,0,0,0-1.59,1.17v3.61h-.21V35.63c0-.85-.34-1.32-1-1.32A1.92,1.92,0,0,0,190,35.49v3.61h-.21V34.22h.18l0,1a1.93,1.93,0,0,1,1.6-1.08,1.14,1.14,0,0,1,1.18,1.12,1.92,1.92,0,0,1,1.61-1.12C195.14,34.12,195.56,34.69,195.56,35.63Z"/><path class="cls-1" d="M200.93,36.78h-3.41c0,1.49.74,2.21,1.73,2.21a2,2,0,0,0,1.38-.54l.11.16a2.17,2.17,0,0,1-1.49.57c-1.18,0-1.95-.91-1.95-2.49s.74-2.58,1.87-2.58,1.78.94,1.78,2.3C201,36.56,200.94,36.68,200.93,36.78Zm-.19-.43c0-1.18-.48-2-1.55-2s-1.64.74-1.67,2.29h3.22Z"/><path class="cls-1" d="M206,35.63v3.47h-.21V35.65c0-.88-.36-1.33-1.1-1.33a2.12,2.12,0,0,0-1.79,1.17v3.61h-.21V34.22h.18l0,1a2.14,2.14,0,0,1,1.79-1.09C205.58,34.12,206,34.67,206,35.63Z"/><path class="cls-1" d="M209.15,39.19c-.65,0-1.05-.4-1.05-1.19V34.4h-.81v-.19h.81V33l.21,0v1.25h1.35l0,.19H208.3V38c0,.66.29,1,.86,1a1.57,1.57,0,0,0,.84-.24l.09.16A1.72,1.72,0,0,1,209.15,39.19Z"/><path class="cls-1" d="M213.69,34.64l-.12.15a2,2,0,0,0-1.32-.48c-.73,0-1.28.39-1.28,1s.37.83,1.33,1.09,1.51.61,1.51,1.42a1.42,1.42,0,0,1-1.59,1.35,2.37,2.37,0,0,1-1.65-.62l.12-.14a2.16,2.16,0,0,0,1.52.56c.78,0,1.37-.41,1.37-1.16s-.33-1-1.39-1.25-1.46-.6-1.46-1.26a1.33,1.33,0,0,1,1.49-1.2A2.15,2.15,0,0,1,213.69,34.64Z"/><path class="cls-2" d="M3.41,4.17v36h36v-36ZM19,32.41h0v0H14.71V29.29l-4.36-5.76a1.23,1.23,0,0,1-.29-.77V13.91a1.26,1.26,0,1,1,2.51,0V19a1.66,1.66,0,0,0-.82.42,1.69,1.69,0,0,0,0,2.39l2.38,2.45.32-.32L12,21.52a1.25,1.25,0,0,1,0-1.76,1.28,1.28,0,0,1,.53-.3,1.3,1.3,0,0,1,.63,0,1.24,1.24,0,0,1,.6.35L19,25.14ZM17.92,20.33a4.72,4.72,0,0,1-1.45-3.49,4.93,4.93,0,0,1,4.93-4.93,4.93,4.93,0,0,1,4.94,4.93,4.95,4.95,0,0,1-4.94,4.94A4.75,4.75,0,0,1,17.92,20.33Zm14.83,2.43a1.22,1.22,0,0,1-.29.77L28.1,29.29v3.14H23.83v0h0V25.14L29,19.79a1.24,1.24,0,0,1,.6-.35,1.29,1.29,0,0,1,.62,0,1.27,1.27,0,0,1,.53.3,1.25,1.25,0,0,1,0,1.76L28.39,24l.33.32,2.38-2.45a1.69,1.69,0,0,0,0-2.39,1.66,1.66,0,0,0-.83-.42V13.91a1.26,1.26,0,0,1,2.51,0Z"/></g></svg>