<?xml version="1.0" encoding="UTF-8"?>
<svg width="348px" height="97px" viewBox="0 0 348 97" version="1.1" xmlns="http://www.w3.org/2000/svg" xmlns:xlink="http://www.w3.org/1999/xlink">
    <!-- Generator: Sketch 43.2 (39069) - http://www.bohemiancoding.com/sketch -->
    <title>humanitarian-events-logo</title>
    <desc>Created with Sketch.</desc>
    <defs></defs>
    <g id="Page-1" stroke="none" stroke-width="1" fill="none" fill-rule="evenodd">
        <g id="humanitarian-events-logo" fill-rule="nonzero">
            <g id="Group" transform="translate(108.411215, 43.364486)" fill="#047AC0">
                <polygon id="Shape" points="7.37196262 42.7140187 31.764486 42.7140187 31.764486 48.5682243 0.758878505 48.5682243 0.758878505 1.73457944 30.6803738 1.73457944 30.6803738 7.48037383 7.2635514 7.48037383 7.2635514 21.4654206 29.271028 21.4654206 29.271028 27.1028037 7.2635514 27.1028037 7.2635514 42.7140187"></polygon>
                <polygon id="Shape" points="56.0485981 40.0037383 56.2654206 40.0037383 70.3588785 1.73457944 77.4056075 1.73457944 59.0841121 48.4598131 53.0130841 48.4598131 34.6915888 1.73457944 41.9551402 1.73457944"></polygon>
                <polygon id="Shape" points="89.4392523 42.7140187 113.831776 42.7140187 113.831776 48.5682243 82.8261682 48.5682243 82.8261682 1.73457944 112.747664 1.73457944 112.747664 7.48037383 89.3308411 7.48037383 89.3308411 21.4654206 111.338318 21.4654206 111.338318 27.1028037 89.3308411 27.1028037 89.3308411 42.7140187"></polygon>
                <polygon id="Shape" points="155.461682 39.1364486 155.570093 39.1364486 155.570093 1.73457944 162.074766 1.73457944 162.074766 48.4598131 153.943925 48.4598131 129.226168 10.2990654 129.117757 10.2990654 129.117757 48.4598131 122.613084 48.4598131 122.613084 1.73457944 131.17757 1.73457944"></polygon>
                <polygon id="Shape" points="189.936449 48.4598131 183.431776 48.4598131 183.431776 7.48037383 168.471028 7.48037383 168.471028 1.73457944 204.897196 1.73457944 204.897196 7.48037383 189.936449 7.48037383"></polygon>
                <path d="M234.276636,10.4074766 C233.300935,9.10654206 232.108411,8.13084112 230.482243,7.2635514 C228.856075,6.39626168 227.121495,6.07102804 225.170093,6.07102804 C224.085981,6.07102804 223.001869,6.17943925 221.917757,6.5046729 C220.833645,6.82990654 219.857944,7.2635514 218.990654,7.91401869 C218.123364,8.56448598 217.364486,9.32336449 216.82243,10.2990654 C216.280374,11.2747664 215.95514,12.3588785 215.95514,13.6598131 C215.95514,14.9607477 216.171963,16.0448598 216.714019,16.9121495 C217.256075,17.7794393 217.906542,18.5383178 218.773832,19.0803738 C219.641121,19.6224299 220.616822,20.164486 221.809346,20.5981308 C223.001869,21.0317757 224.194393,21.4654206 225.495327,21.8990654 C227.121495,22.3327103 228.639252,22.9831776 230.265421,23.5252336 C231.891589,24.1757009 233.409346,24.9345794 234.71028,26.0186916 C236.011215,26.9943925 237.095327,28.2953271 237.962617,29.8130841 C238.829907,31.3308411 239.263551,33.282243 239.263551,35.5588785 C239.263551,37.9439252 238.829907,40.1121495 237.962617,41.846729 C237.095327,43.5813084 235.902804,45.0990654 234.385047,46.2915888 C232.86729,47.4841121 231.13271,48.3514019 229.181308,48.8934579 C227.229907,49.435514 225.170093,49.7607477 223.11028,49.7607477 C220.183178,49.7607477 217.364486,49.2186916 214.545794,48.0261682 C211.835514,46.8336449 209.558879,45.2074766 207.715888,42.9308411 L212.811215,38.5943925 C213.895327,40.2205607 215.413084,41.5214953 217.256075,42.6056075 C219.099065,43.5813084 221.158879,44.1233645 223.218692,44.1233645 C224.302804,44.1233645 225.386916,44.0149533 226.471028,43.6897196 C227.55514,43.364486 228.530841,42.9308411 229.506542,42.2803738 C230.373832,41.6299065 231.13271,40.7626168 231.674766,39.7869159 C232.216822,38.811215 232.542056,37.6186916 232.542056,36.2093458 C232.542056,34.8 232.216822,33.6074766 231.674766,32.6317757 C231.13271,31.6560748 230.265421,30.8971963 229.28972,30.246729 C228.314019,29.5962617 227.121495,29.0542056 225.71215,28.5121495 C224.411215,28.0785047 223.001869,27.5364486 221.484112,27.1028037 C219.966355,26.6691589 218.557009,26.1271028 217.039252,25.4766355 C215.629907,24.8261682 214.328972,24.0672897 213.136449,22.9831776 C211.943925,22.0074766 211.076636,20.8149533 210.317757,19.2971963 C209.66729,17.8878505 209.233645,16.0448598 209.233645,13.8766355 C209.233645,11.4915888 209.66729,9.54018692 210.642991,7.91401869 C211.618692,6.28785047 212.811215,4.87850467 214.328972,3.79439252 C215.846729,2.71028037 217.581308,1.84299065 219.424299,1.40934579 C221.375701,0.86728972 223.218692,0.65046729 225.170093,0.65046729 C227.880374,0.65046729 230.482243,1.08411215 232.86729,2.05981308 C235.252336,3.03551402 237.203738,4.3364486 238.613084,5.96261682 L234.276636,10.4074766 Z" id="Shape"></path>
            </g>
            <g id="Group" transform="translate(109.495327, 2.168224)" fill="#047AC0">
                <polygon id="Shape" points="20.8149533 30.1383178 20.8149533 15.3943925 1.08411215 15.3943925 1.08411215 30.1383178 0.21682243 30.1383178 0.21682243 0.86728972 1.08411215 0.86728972 1.08411215 14.635514 20.8149533 14.635514 20.8149533 0.86728972 21.682243 0.86728972 21.682243 30.1383178"></polygon>
                <path d="M43.2560748,27.5364486 C42.7140187,28.1869159 42.1719626,28.8373832 41.5214953,29.271028 C40.871028,29.7046729 40.1121495,30.1383178 39.353271,30.3551402 C38.5943925,30.5719626 37.7271028,30.6803738 36.9682243,30.6803738 C35.6672897,30.6803738 34.5831776,30.4635514 33.6074766,30.0299065 C32.7401869,29.5962617 31.9813084,28.9457944 31.5476636,28.1869159 C31.0056075,27.4280374 30.6803738,26.5607477 30.4635514,25.5850467 C30.246729,24.6093458 30.1383178,23.6336449 30.1383178,22.6579439 L30.1383178,11.1663551 L31.0056075,11.1663551 L31.0056075,22.5495327 C31.0056075,23.3084112 31.1140187,24.1757009 31.2224299,25.0429907 C31.4392523,25.9102804 31.6560748,26.6691589 32.1981308,27.4280374 C32.6317757,28.1869159 33.282243,28.728972 34.0411215,29.271028 C34.8,29.7046729 35.7757009,30.0299065 36.9682243,30.0299065 C38.0523364,30.0299065 39.0280374,29.8130841 39.8953271,29.3794393 C40.871028,28.9457944 41.6299065,28.2953271 42.2803738,27.5364486 C42.9308411,26.7775701 43.4728972,25.8018692 43.9065421,24.6093458 C44.3401869,23.4168224 44.5570093,22.1158879 44.5570093,20.7065421 L44.5570093,11.1663551 L45.4242991,11.1663551 L45.4242991,25.3682243 L45.4242991,26.4523364 L45.4242991,27.753271 C45.4242991,28.1869159 45.4242991,28.6205607 45.5327103,29.0542056 C45.5327103,29.4878505 45.6411215,29.8130841 45.6411215,30.1383178 L44.7738318,30.1383178 C44.7738318,29.8130841 44.7738318,29.4878505 44.6654206,29.0542056 L44.6654206,27.753271 L44.6654206,26.3439252 L44.6654206,25.1514019 L44.4485981,25.1514019 C44.1233645,26.0186916 43.7981308,26.8859813 43.2560748,27.5364486 Z" id="Shape"></path>
                <path d="M68.6242991,16.3700935 C69.1663551,14.5271028 70.1420561,13.0093458 71.4429907,12.0336449 C72.7439252,11.0579439 74.2616822,10.5158879 75.9962617,10.5158879 C77.2971963,10.5158879 78.3813084,10.7327103 79.2485981,11.1663551 C80.1158879,11.6 80.7663551,12.2504673 81.3084112,13.0093458 C81.8504673,13.7682243 82.1757009,14.635514 82.3925234,15.611215 C82.6093458,16.5869159 82.717757,17.5626168 82.717757,18.5383178 L82.717757,30.0299065 L81.8504673,30.0299065 L81.8504673,18.7551402 C81.8504673,17.9962617 81.7420561,17.128972 81.6336449,16.2616822 C81.4168224,15.3943925 81.0915888,14.5271028 80.6579439,13.8766355 C80.2242991,13.2261682 79.5738318,12.5757009 78.9233645,12.0336449 C78.164486,11.6 77.188785,11.2747664 76.1046729,11.2747664 C75.128972,11.2747664 74.153271,11.4915888 73.2859813,11.9252336 C72.4186916,12.3588785 71.6598131,13.0093458 71.0093458,13.7682243 C70.3588785,14.5271028 69.8168224,15.5028037 69.4915888,16.6953271 C69.0579439,17.8878505 68.9495327,19.188785 68.9495327,20.5981308 L68.9495327,30.1383178 L68.082243,30.1383178 L68.082243,18.7551402 C68.082243,17.9962617 67.9738318,17.128972 67.8654206,16.2616822 C67.7570093,15.3943925 67.4317757,14.5271028 66.9981308,13.8766355 C66.564486,13.2261682 66.0224299,12.5757009 65.2635514,12.0336449 C64.5046729,11.6 63.6373832,11.2747664 62.4448598,11.2747664 C61.4691589,11.2747664 60.4934579,11.4915888 59.6261682,11.9252336 C58.7588785,12.3588785 58,13.0093458 57.3495327,13.7682243 C56.6990654,14.5271028 56.1570093,15.5028037 55.8317757,16.6953271 C55.5065421,17.8878505 55.2897196,19.188785 55.2897196,20.5981308 L55.2897196,30.1383178 L54.2056075,30.1383178 L54.2056075,15.9364486 L54.2056075,14.8523364 L54.2056075,13.5514019 C54.2056075,13.117757 54.2056075,12.6841121 54.0971963,12.2504673 C54.0971963,11.8168224 53.988785,11.4915888 53.988785,11.1663551 L54.8560748,11.1663551 C54.8560748,11.4915888 54.8560748,11.8168224 54.964486,12.2504673 L54.964486,13.5514019 L54.964486,14.9607477 L54.964486,16.153271 L55.0728972,16.153271 C55.3981308,15.2859813 55.7233645,14.5271028 56.2654206,13.7682243 C56.8074766,13.117757 57.3495327,12.4672897 57.8915888,12.0336449 C58.5420561,11.6 59.1925234,11.1663551 59.9514019,10.9495327 C60.7102804,10.7327103 61.4691589,10.6242991 62.2280374,10.6242991 C63.2037383,10.6242991 64.071028,10.7327103 64.8299065,11.0579439 C65.588785,11.3831776 66.1308411,11.8168224 66.6728972,12.2504673 C67.2149533,12.7925234 67.5401869,13.4429907 67.8654206,14.0934579 C68.1906542,14.7439252 68.4074766,15.611215 68.6242991,16.3700935 L68.6242991,16.3700935 Z" id="Shape"></path>
                <path d="M103.966355,25.9102804 C103.966355,26.6691589 103.966355,27.4280374 104.074766,28.1869159 C104.183178,29.0542056 104.183178,29.7046729 104.291589,30.246729 L103.424299,30.246729 C103.315888,29.9214953 103.315888,29.5962617 103.315888,29.271028 C103.315888,28.9457944 103.207477,28.4037383 103.207477,28.0785047 C103.207477,27.6448598 103.099065,27.211215 103.099065,26.7775701 L103.099065,25.6934579 L102.990654,25.6934579 C102.448598,27.4280374 101.472897,28.728972 100.171963,29.5962617 C98.871028,30.4635514 97.353271,30.8971963 95.835514,30.8971963 C95.0766355,30.8971963 94.317757,30.788785 93.5588785,30.5719626 C92.8,30.3551402 92.1495327,30.0299065 91.4990654,29.5962617 C90.8485981,29.1626168 90.4149533,28.6205607 89.9813084,27.8616822 C89.6560748,27.211215 89.4392523,26.3439252 89.4392523,25.3682243 C89.4392523,24.0672897 89.764486,22.8747664 90.5233645,22.1158879 C91.1738318,21.2485981 92.1495327,20.5981308 93.1252336,20.164486 C94.2093458,19.7308411 95.2934579,19.4056075 96.4859813,19.2971963 C97.6785047,19.188785 98.7626168,19.0803738 99.7383178,19.0803738 L103.099065,19.0803738 L103.099065,17.5626168 C103.099065,15.3943925 102.557009,13.8766355 101.364486,12.9009346 C100.280374,11.9252336 98.7626168,11.3831776 96.9196262,11.3831776 C95.835514,11.3831776 94.7514019,11.6 93.7757009,12.0336449 C92.8,12.4672897 91.9327103,13.0093458 91.1738318,13.6598131 L90.6317757,13.0093458 C91.4990654,12.2504673 92.4747664,11.6 93.6672897,11.2747664 C94.7514019,10.8411215 95.835514,10.6242991 96.9196262,10.6242991 C99.0878505,10.6242991 100.82243,11.1663551 102.123364,12.2504673 C103.424299,13.3345794 103.966355,15.1775701 103.966355,17.5626168 L103.966355,25.9102804 Z M103.099065,19.8392523 L100.171963,19.8392523 C99.0878505,19.8392523 98.0037383,19.9476636 96.811215,20.0560748 C95.6186916,20.164486 94.6429907,20.4897196 93.6672897,20.8149533 C92.6915888,21.2485981 91.9327103,21.7906542 91.282243,22.4411215 C90.6317757,23.2 90.3065421,24.1757009 90.3065421,25.3682243 C90.3065421,26.235514 90.5233645,26.9943925 90.8485981,27.5364486 C91.1738318,28.0785047 91.6074766,28.6205607 92.1495327,28.9457944 C92.6915888,29.271028 93.2336449,29.5962617 93.8841121,29.7046729 C94.5345794,29.9214953 95.1850467,29.9214953 95.7271028,29.9214953 C97.1364486,29.9214953 98.328972,29.7046729 99.1962617,29.1626168 C100.171963,28.6205607 100.930841,27.9700935 101.472897,27.1028037 C102.014953,26.235514 102.448598,25.3682243 102.665421,24.3925234 C102.882243,23.4168224 102.990654,22.4411215 102.990654,21.4654206 L102.990654,19.8392523 L103.099065,19.8392523 Z" id="Shape"></path>
                <path d="M114.373832,13.7682243 C114.915888,13.117757 115.457944,12.4672897 116.108411,12.0336449 C116.758879,11.6 117.517757,11.1663551 118.276636,10.9495327 C119.035514,10.7327103 119.902804,10.6242991 120.661682,10.6242991 C121.962617,10.6242991 123.046729,10.8411215 124.02243,11.2747664 C124.88972,11.7084112 125.648598,12.3588785 126.082243,13.117757 C126.515888,13.8766355 126.949533,14.7439252 127.166355,15.7196262 C127.383178,16.6953271 127.491589,17.671028 127.491589,18.646729 L127.491589,30.1383178 L126.624299,30.1383178 L126.624299,18.7551402 C126.624299,17.9962617 126.515888,17.128972 126.407477,16.2616822 C126.190654,15.3943925 125.973832,14.5271028 125.431776,13.8766355 C124.88972,13.2261682 124.347664,12.5757009 123.588785,12.0336449 C122.829907,11.6 121.854206,11.2747664 120.661682,11.2747664 C119.57757,11.2747664 118.601869,11.4915888 117.734579,11.9252336 C116.758879,12.3588785 116,13.0093458 115.349533,13.7682243 C114.699065,14.5271028 114.157009,15.5028037 113.723364,16.6953271 C113.28972,17.8878505 113.072897,19.188785 113.072897,20.5981308 L113.072897,30.1383178 L112.205607,30.1383178 L112.205607,15.9364486 L112.205607,14.8523364 L112.205607,13.5514019 C112.205607,13.117757 112.205607,12.6841121 112.097196,12.2504673 C112.097196,11.8168224 111.988785,11.4915888 111.988785,11.1663551 L112.856075,11.1663551 C112.856075,11.4915888 112.856075,11.8168224 112.964486,12.2504673 L112.964486,13.5514019 L112.964486,14.9607477 L112.964486,16.153271 L113.072897,16.153271 C113.398131,15.2859813 113.831776,14.4186916 114.373832,13.7682243 Z" id="Shape"></path>
                <path d="M136.272897,4.01121495 C136.056075,4.01121495 135.839252,3.90280374 135.62243,3.68598131 C135.405607,3.46915888 135.297196,3.25233645 135.297196,2.9271028 C135.297196,2.60186916 135.405607,2.38504673 135.62243,2.1682243 C135.839252,1.95140187 136.056075,1.84299065 136.272897,1.84299065 C136.48972,1.84299065 136.706542,1.95140187 136.923364,2.1682243 C137.140187,2.38504673 137.248598,2.60186916 137.248598,2.9271028 C137.248598,3.25233645 137.140187,3.46915888 136.923364,3.68598131 C136.706542,3.90280374 136.48972,4.01121495 136.272897,4.01121495 Z M135.730841,30.1383178 L135.730841,11.1663551 L136.598131,11.1663551 L136.598131,30.246729 L135.730841,30.246729 L135.730841,30.1383178 Z" id="Shape"></path>
                <path d="M151.342056,30.5719626 C150.908411,30.6803738 150.474766,30.6803738 150.041121,30.6803738 C148.523364,30.6803738 147.439252,30.246729 146.897196,29.3794393 C146.35514,28.5121495 145.921495,27.4280374 145.921495,26.235514 L145.921495,11.9252336 L141.801869,11.9252336 L141.801869,11.1663551 L145.921495,11.1663551 L145.921495,5.52897196 L146.788785,5.52897196 L146.788785,11.1663551 L152.426168,11.1663551 L152.426168,11.9252336 L146.788785,11.9252336 L146.788785,26.235514 C146.788785,27.5364486 147.114019,28.5121495 147.764486,29.0542056 C148.414953,29.5962617 149.282243,29.9214953 150.257944,29.9214953 C151.016822,29.9214953 151.775701,29.8130841 152.317757,29.5962617 L152.426168,30.246729 C152.100935,30.3551402 151.775701,30.4635514 151.342056,30.5719626 Z" id="Shape"></path>
                <path d="M170.747664,25.9102804 C170.747664,26.6691589 170.747664,27.4280374 170.856075,28.1869159 C170.964486,29.0542056 170.964486,29.7046729 171.072897,30.246729 L170.205607,30.246729 C170.097196,29.9214953 170.097196,29.5962617 170.097196,29.271028 C170.097196,28.9457944 169.988785,28.4037383 169.988785,28.0785047 C169.988785,27.6448598 169.880374,27.211215 169.880374,26.7775701 L169.880374,25.6934579 L169.771963,25.6934579 C169.229907,27.4280374 168.254206,28.728972 166.953271,29.5962617 C165.652336,30.4635514 164.134579,30.8971963 162.616822,30.8971963 C161.857944,30.8971963 161.099065,30.788785 160.340187,30.5719626 C159.581308,30.3551402 158.930841,30.0299065 158.280374,29.5962617 C157.629907,29.1626168 157.196262,28.6205607 156.762617,27.8616822 C156.437383,27.211215 156.220561,26.3439252 156.220561,25.3682243 C156.220561,24.0672897 156.545794,22.8747664 157.304673,22.1158879 C157.95514,21.2485981 158.930841,20.5981308 159.906542,20.164486 C160.990654,19.7308411 162.074766,19.4056075 163.26729,19.2971963 C164.459813,19.188785 165.543925,19.0803738 166.519626,19.0803738 L169.880374,19.0803738 L169.880374,17.5626168 C169.880374,15.3943925 169.338318,13.8766355 168.145794,12.9009346 C167.061682,11.9252336 165.543925,11.3831776 163.700935,11.3831776 C162.616822,11.3831776 161.53271,11.6 160.557009,12.0336449 C159.581308,12.4672897 158.714019,13.0093458 157.95514,13.6598131 L157.413084,13.0093458 C158.280374,12.2504673 159.256075,11.6 160.448598,11.2747664 C161.53271,10.8411215 162.616822,10.6242991 163.700935,10.6242991 C165.869159,10.6242991 167.603738,11.1663551 168.904673,12.2504673 C170.205607,13.3345794 170.747664,15.1775701 170.747664,17.5626168 L170.747664,25.9102804 L170.747664,25.9102804 Z M169.880374,19.8392523 L166.953271,19.8392523 C165.869159,19.8392523 164.785047,19.9476636 163.592523,20.0560748 C162.4,20.164486 161.424299,20.4897196 160.448598,20.8149533 C159.472897,21.2485981 158.714019,21.7906542 158.063551,22.4411215 C157.413084,23.2 157.08785,24.1757009 157.08785,25.3682243 C157.08785,26.235514 157.304673,26.9943925 157.629907,27.5364486 C157.95514,28.0785047 158.388785,28.6205607 158.930841,28.9457944 C159.472897,29.271028 160.014953,29.5962617 160.665421,29.7046729 C161.315888,29.9214953 161.966355,29.9214953 162.508411,29.9214953 C163.917757,29.9214953 165.11028,29.7046729 165.97757,29.1626168 C166.953271,28.6205607 167.71215,27.9700935 168.254206,27.1028037 C168.796262,26.235514 169.229907,25.3682243 169.446729,24.3925234 C169.663551,23.4168224 169.771963,22.4411215 169.771963,21.4654206 L169.771963,19.8392523 L169.880374,19.8392523 Z" id="Shape"></path>
                <path d="M182.672897,11.8168224 C183.865421,10.9495327 185.166355,10.5158879 186.575701,10.5158879 L186.900935,10.5158879 L187.226168,10.5158879 L187.226168,11.2747664 L186.900935,11.2747664 L186.684112,11.2747664 C185.491589,11.2747664 184.407477,11.4915888 183.540187,12.0336449 C182.672897,12.5757009 182.02243,13.2261682 181.480374,14.0934579 C180.938318,14.9607477 180.504673,15.9364486 180.28785,17.0205607 C180.071028,18.1046729 179.854206,19.188785 179.854206,20.164486 L179.854206,30.0299065 L178.986916,30.0299065 L178.986916,15.9364486 L178.986916,14.8523364 L178.986916,13.5514019 C178.986916,13.117757 178.986916,12.6841121 178.878505,12.2504673 C178.878505,11.8168224 178.770093,11.4915888 178.770093,11.1663551 L179.637383,11.1663551 C179.637383,11.4915888 179.637383,11.8168224 179.745794,12.2504673 L179.745794,13.5514019 L179.745794,14.9607477 L179.745794,16.153271 L179.854206,16.153271 C180.504673,14.2018692 181.371963,12.6841121 182.672897,11.8168224 Z" id="Shape"></path>
                <path d="M192.538318,4.01121495 C192.321495,4.01121495 192.104673,3.90280374 191.88785,3.68598131 C191.671028,3.46915888 191.562617,3.25233645 191.562617,2.9271028 C191.562617,2.60186916 191.671028,2.38504673 191.88785,2.1682243 C192.104673,1.95140187 192.321495,1.84299065 192.538318,1.84299065 C192.75514,1.84299065 192.971963,1.95140187 193.188785,2.1682243 C193.405607,2.38504673 193.514019,2.60186916 193.514019,2.9271028 C193.514019,3.25233645 193.405607,3.46915888 193.188785,3.68598131 C192.971963,3.90280374 192.75514,4.01121495 192.538318,4.01121495 Z M191.996262,30.1383178 L191.996262,11.1663551 L192.863551,11.1663551 L192.863551,30.246729 L191.996262,30.246729 L191.996262,30.1383178 Z" id="Shape"></path>
                <path d="M214.437383,25.9102804 C214.437383,26.6691589 214.437383,27.4280374 214.545794,28.1869159 C214.654206,29.0542056 214.654206,29.7046729 214.762617,30.246729 L213.895327,30.246729 C213.786916,29.9214953 213.786916,29.5962617 213.786916,29.271028 C213.786916,28.9457944 213.678505,28.4037383 213.678505,28.0785047 C213.678505,27.6448598 213.570093,27.211215 213.570093,26.7775701 L213.570093,25.6934579 L213.461682,25.6934579 C212.919626,27.4280374 211.943925,28.728972 210.642991,29.5962617 C209.342056,30.4635514 207.824299,30.8971963 206.306542,30.8971963 C205.547664,30.8971963 204.788785,30.788785 204.029907,30.5719626 C203.271028,30.3551402 202.620561,30.0299065 201.970093,29.5962617 C201.319626,29.1626168 200.885981,28.6205607 200.452336,27.8616822 C200.127103,27.211215 199.91028,26.3439252 199.91028,25.3682243 C199.91028,24.0672897 200.235514,22.8747664 200.994393,22.1158879 C201.64486,21.2485981 202.620561,20.5981308 203.596262,20.164486 C204.680374,19.7308411 205.764486,19.4056075 206.957009,19.2971963 C208.149533,19.188785 209.233645,19.0803738 210.209346,19.0803738 L213.570093,19.0803738 L213.570093,17.5626168 C213.570093,15.3943925 213.028037,13.8766355 211.835514,12.9009346 C210.751402,11.9252336 209.233645,11.3831776 207.390654,11.3831776 C206.306542,11.3831776 205.22243,11.6 204.246729,12.0336449 C203.271028,12.4672897 202.403738,13.0093458 201.64486,13.6598131 L201.102804,13.0093458 C201.970093,12.2504673 202.945794,11.6 204.138318,11.2747664 C205.22243,10.8411215 206.306542,10.6242991 207.390654,10.6242991 C209.558879,10.6242991 211.293458,11.1663551 212.594393,12.2504673 C213.895327,13.3345794 214.437383,15.1775701 214.437383,17.5626168 L214.437383,25.9102804 L214.437383,25.9102804 Z M213.570093,19.8392523 L210.642991,19.8392523 C209.558879,19.8392523 208.474766,19.9476636 207.282243,20.0560748 C206.08972,20.164486 205.114019,20.4897196 204.138318,20.8149533 C203.162617,21.2485981 202.403738,21.7906542 201.753271,22.4411215 C201.102804,23.2 200.77757,24.1757009 200.77757,25.3682243 C200.77757,26.235514 200.994393,26.9943925 201.319626,27.5364486 C201.64486,28.0785047 202.078505,28.6205607 202.620561,28.9457944 C203.162617,29.271028 203.704673,29.5962617 204.35514,29.7046729 C205.005607,29.9214953 205.656075,29.9214953 206.198131,29.9214953 C207.607477,29.9214953 208.8,29.7046729 209.66729,29.1626168 C210.642991,28.6205607 211.401869,27.9700935 211.943925,27.1028037 C212.485981,26.235514 212.919626,25.3682243 213.136449,24.3925234 C213.353271,23.4168224 213.461682,22.4411215 213.461682,21.4654206 L213.461682,19.8392523 L213.570093,19.8392523 Z" id="Shape"></path>
                <path d="M224.84486,13.7682243 C225.386916,13.117757 225.928972,12.4672897 226.579439,12.0336449 C227.229907,11.6 227.988785,11.1663551 228.747664,10.9495327 C229.506542,10.7327103 230.373832,10.6242991 231.13271,10.6242991 C232.433645,10.6242991 233.517757,10.8411215 234.493458,11.2747664 C235.360748,11.7084112 236.119626,12.3588785 236.553271,13.117757 C236.986916,13.8766355 237.420561,14.7439252 237.637383,15.7196262 C237.854206,16.6953271 237.962617,17.671028 237.962617,18.646729 L237.962617,30.1383178 L237.095327,30.1383178 L237.095327,18.7551402 C237.095327,17.9962617 236.986916,17.128972 236.878505,16.2616822 C236.661682,15.3943925 236.44486,14.5271028 235.902804,13.8766355 C235.360748,13.2261682 234.818692,12.5757009 234.059813,12.0336449 C233.300935,11.6 232.325234,11.2747664 231.13271,11.2747664 C230.048598,11.2747664 229.072897,11.4915888 228.205607,11.9252336 C227.229907,12.3588785 226.471028,13.0093458 225.820561,13.7682243 C225.170093,14.5271028 224.628037,15.5028037 224.194393,16.6953271 C223.760748,17.8878505 223.543925,19.188785 223.543925,20.5981308 L223.543925,30.1383178 L222.676636,30.1383178 L222.676636,15.9364486 L222.676636,14.8523364 L222.676636,13.5514019 C222.676636,13.117757 222.676636,12.6841121 222.568224,12.2504673 C222.568224,11.8168224 222.459813,11.4915888 222.459813,11.1663551 L223.327103,11.1663551 C223.327103,11.4915888 223.327103,11.8168224 223.435514,12.2504673 L223.435514,13.5514019 L223.435514,14.9607477 L223.435514,16.153271 L223.543925,16.153271 C223.97757,15.2859813 224.302804,14.4186916 224.84486,13.7682243 Z" id="Shape"></path>
            </g>
            <g id="Group">
                <path d="M86.8373832,91.8242991 L7.15514019,91.8242991 C4.3364486,91.8242991 2.05981308,89.5476636 2.05981308,86.728972 L2.05981308,7.04672897 C2.05981308,4.22803738 4.3364486,1.95140187 7.15514019,1.95140187 L86.8373832,1.95140187 C89.6560748,1.95140187 91.9327103,4.22803738 91.9327103,7.04672897 L91.9327103,86.728972 C91.9327103,89.5476636 89.6560748,91.8242991 86.8373832,91.8242991 Z" id="Shape" fill="#047AC0"></path>
                <g>
                    <g id="Calendar_2_">
                        <g id="Group">
                            <path d="M71.6598131,18.7551402 L8.45607477,46.8336449 L1.62616822,31.5476636 C0.758878505,29.5962617 2.1682243,27.5364486 4.11962617,26.6691589 L59.517757,2.05981308 C61.4691589,1.19252336 63.9626168,1.62616822 64.8299065,3.46915888 L71.6598131,18.7551402 Z" id="Shape" fill="#B6E4FA"></path>
                            <path d="M8.02242991,48.1345794 L0.86728972,31.9813084 C-0.21682243,29.4878505 1.51775701,26.8859813 3.79439252,25.8018692 L59.1925234,1.08411215 C60.3850467,0.542056075 61.6859813,0.43364486 62.8785047,0.758878505 C64.1794393,1.08411215 65.2635514,1.95140187 65.8056075,3.03551402 L72.9607477,19.188785 L8.02242991,48.1345794 Z M61.5775701,2.49345794 C61.035514,2.49345794 60.4934579,2.60186916 59.9514019,2.81869159 L4.55327103,27.5364486 C3.14392523,28.1869159 1.95140187,29.7046729 2.60186916,31.2224299 L8.99813084,45.5327103 L70.3588785,18.2130841 L63.9626168,3.90280374 C63.6373832,3.14392523 62.8785047,2.81869159 62.3364486,2.71028037 C62.1196262,2.60186916 61.7943925,2.49345794 61.5775701,2.49345794 Z" id="Shape" fill="#FFFFFF"></path>
                        </g>
                        <g id="Group" transform="translate(8.672897, 16.261682)" fill="#FFFFFF">
                            <circle id="Oval" transform="translate(6.602807, 13.124695) rotate(-23.991577) translate(-6.602807, -13.124695) " cx="6.60280673" cy="13.1246953" r="2.81867541"></circle>
                            <rect id="Rectangle-path" transform="translate(3.984058, 7.083979) rotate(-23.991577) translate(-3.984058, -7.083979) " x="3.00836261" y="0.850369987" width="1.95139067" height="12.4672182"></rect>
                        </g>
                        <g id="Group" transform="translate(47.700935, 0.000000)" fill="#FFFFFF">
                            <circle id="Oval" transform="translate(6.402073, 12.147347) rotate(-23.991577) translate(-6.402073, -12.147347) " cx="6.40207252" cy="12.1473465" r="2.81867541"></circle>
                            <rect id="Rectangle-path" transform="translate(3.785020, 6.104516) rotate(-23.996811) translate(-3.785020, -6.104516) " x="2.80928536" y="-0.129346304" width="1.95147002" height="12.4677251"></rect>
                        </g>
                        <g id="Group" transform="translate(6.504673, 17.345794)" fill="#FFFFFF">
                            <path d="M83.4766355,53.1214953 L28.0785047,77.7308411 C26.1271028,78.5981308 23.7420561,78.2728972 22.8747664,76.3214953 L1.95140187,29.4878505 L65.046729,1.40934579 L85.9700935,48.3514019 C86.8373832,50.1943925 85.4280374,52.2542056 83.4766355,53.1214953 Z" id="Shape"></path>
                            <path d="M25.9102804,79.1401869 C25.5850467,79.1401869 25.1514019,79.1401869 24.8261682,79.0317757 C23.5252336,78.7065421 22.4411215,77.9476636 21.8990654,76.7551402 L0.65046729,28.9457944 L65.588785,0.108411215 L86.8373832,47.917757 C87.3794393,49.1102804 87.271028,50.411215 86.6205607,51.6037383 C86.0785047,52.5794393 85.1028037,53.446729 83.9102804,53.988785 L28.5121495,78.5981308 C27.6448598,79.0317757 26.7775701,79.1401869 25.9102804,79.1401869 Z M3.25233645,29.9214953 L23.7420561,75.9962617 C24.0672897,76.646729 24.5009346,76.9719626 25.2598131,77.188785 C26.0186916,77.2971963 26.8859813,77.188785 27.6448598,76.8635514 L83.0429907,52.2542056 C83.8018692,51.928972 84.5607477,51.2785047 84.8859813,50.6280374 C85.211215,49.9775701 85.3196262,49.3271028 84.9943925,48.6766355 L64.6130841,2.60186916 L3.25233645,29.9214953 Z" id="Shape"></path>
                        </g>
                    </g>
                    <rect id="Rectangle-path" fill="#4DB5E7" transform="translate(25.164867, 52.007874) rotate(-23.991577) translate(-25.164867, -52.007874) " x="20.3948005" y="47.2378076" width="9.54013216" height="9.54013216"></rect>
                    <rect id="Rectangle-path" fill="#4DB5E7" transform="translate(31.105888, 65.345033) rotate(-23.991577) translate(-31.105888, -65.345033) " x="26.3358218" y="60.5749672" width="9.54013216" height="9.54013216"></rect>
                    <rect id="Rectangle-path" fill="#4DB5E7" transform="translate(36.992053, 78.825426) rotate(-23.991577) translate(-36.992053, -78.825426) " x="32.221987" y="74.0553597" width="9.54013216" height="9.54013216"></rect>
                </g>
            </g>
        </g>
    </g>
</svg>